<svg id="Capa_1" data-name="Capa 1" xmlns="http://www.w3.org/2000/svg" xmlns:xlink="http://www.w3.org/1999/xlink" viewBox="0 0 70.8 70.8"><defs><style>.cls-1{fill:#fff;}.cls-2{fill:url(#Degradado_sin_nombre);}</style><radialGradient id="Degradado_sin_nombre" cx="28.23" cy="224.22" fx="-6.715301720497337" r="35.43" gradientTransform="translate(0 -198)" gradientUnits="userSpaceOnUse"><stop offset="0" stop-color="#3cb187"/><stop offset="0.49" stop-color="#2f9373"/><stop offset="1" stop-color="#1f705c"/></radialGradient></defs><title>icon</title><circle class="cls-1" cx="35.4" cy="35.4" r="31.4"/><path class="cls-2" d="M35.4,0A35.4,35.4,0,1,0,70.8,35.4h0A35.4,35.4,0,0,0,35.4,0ZM32.6,53.9a6.44,6.44,0,0,1-4.2,1.8,2,2,0,0,1-.8-.1h-.2a2.35,2.35,0,0,1-.8-.2h-.1c-.2-.1-.5-.2-.7-.3h-.1c-.2-.1-.5-.3-.7-.4h0c-.3-.2-.5-.4-.8-.6L8.1,38l8.4-8.6L27.1,40a1.63,1.63,0,0,0,2.4,0h0L54.3,15.2l5.6,5.6h0l2.8,2.8h0Z" transform="translate(0 0)"/></svg>